<?xml version="1.0" encoding="UTF-8"?>
<svg version="1.1" xmlns="http://www.w3.org/2000/svg" width="256" height="256">
<path d="M0 0 C84.48 0 168.96 0 256 0 C256 84.48 256 168.96 256 256 C171.52 256 87.04 256 0 256 C0 171.52 0 87.04 0 0 Z " fill="#000000" transform="translate(0,0)"/>
<path d="M0 0 C1.69615448 -0.01336143 1.69615448 -0.01336143 3.42657471 -0.0269928 C7.16843234 -0.04831636 10.90857449 -0.02593252 14.65039062 -0.0012207 C17.25769222 -0.00272341 19.86499335 -0.00615413 22.47229004 -0.01142883 C27.9433134 -0.01776805 33.41384544 0.00047754 38.88476562 0.03320312 C45.17932816 0.07054812 51.47295328 0.06898498 57.7675643 0.04616195 C63.84865909 0.0250748 69.92935737 0.03267119 76.01045227 0.0524807 C78.58424771 0.05830233 81.15806969 0.05707011 83.7318573 0.04845619 C114.03511971 -0.01913947 114.03511971 -0.01913947 126.73632812 10.66674805 C133.75104708 17.76087892 139.02952645 25.17369126 139.30664062 35.32299805 C139.16365713 43.84838869 136.53216954 50.33125811 131.04882812 56.8503418 C118.41195674 68.93203683 102.05011739 71.23566016 85.37695312 71.15893555 C83.81281397 71.16096109 82.24867575 71.1638765 80.68453979 71.16763306 C77.42859787 71.17202604 74.17290491 71.16571875 70.91699219 71.15161133 C66.75083417 71.13443509 62.5852525 71.1444325 58.41911507 71.16232872 C55.19857444 71.17317601 51.97817034 71.1697174 48.75762558 71.16194534 C47.22107753 71.15995037 45.68451692 71.16237784 44.14798355 71.169384 C42.00408297 71.17702392 39.86111632 71.16536403 37.71728516 71.14868164 C36.50025909 71.14629486 35.28323303 71.14390808 34.02932739 71.14144897 C29.53162752 70.60977988 26.96522107 68.91907849 23.80664062 65.76049805 C23.17148834 60.22559957 23.17148834 60.22559957 23.80664062 57.76049805 C26.43213282 54.50475083 27.91151202 52.92790393 32.08074951 52.1481781 C33.94198456 52.15628258 33.94198456 52.15628258 35.84082031 52.16455078 C36.52935089 52.16049225 37.21788147 52.15643372 37.92727661 52.1522522 C39.41628793 52.14674962 40.90537675 52.15270245 42.39431 52.16891289 C44.75847995 52.19441502 47.12091298 52.18950836 49.48516846 52.17701721 C54.50918438 52.15629232 59.53266042 52.17591356 64.55664062 52.19799805 C70.36806326 52.21916594 76.1789221 52.2235221 81.99033356 52.19749641 C84.30652671 52.19415949 86.62161947 52.21527833 88.93768311 52.23789978 C96.51574164 52.25328312 103.34312978 52.14224673 109.80664062 47.76049805 C112.27872858 45.40217032 112.27872858 45.40217032 113.80664062 42.76049805 C114.21914062 42.16237305 114.63164062 41.56424805 115.05664062 40.94799805 C116.71546417 36.10976271 116.40739554 32.15315717 114.43164062 27.57299805 C109.60049081 22.3967661 103.51552984 19.5603998 96.43048096 19.1481781 C94.47946247 19.12842614 92.52804681 19.13524499 90.57714844 19.16455078 C89.5026796 19.16049225 88.42821075 19.15643372 87.32118225 19.1522522 C85.00611608 19.1467632 82.69099984 19.15266322 80.37598419 19.16891289 C76.71024235 19.19443662 73.04561903 19.18950111 69.37982178 19.17701721 C61.60530345 19.1563296 53.8311358 19.17593696 46.05664062 19.19799805 C37.0305448 19.21911465 28.00480972 19.22368742 18.97872162 19.19749641 C15.37009855 19.19413634 11.76216656 19.21535014 8.15362549 19.23789978 C5.94193369 19.23538881 3.73024275 19.23182906 1.51855469 19.22705078 C0.01757988 19.24637917 0.01757988 19.24637917 -1.51371765 19.26609802 C-7.89867162 19.22007759 -11.57206615 18.38179128 -16.19335938 13.76049805 C-16.69115932 9.52919853 -16.50169651 7.29992036 -14.36950684 3.56974792 C-10.48729652 -0.77856054 -5.45055806 -0.0702001 0 0 Z " fill="#F8F0EC" transform="translate(72.193359375,49.239501953125)"/>
<path d="M0 0 C0 5.94 0 11.88 0 18 C-1.629375 18.04125 -3.25875 18.0825 -4.9375 18.125 C-11.23873187 18.76402095 -15.61713047 20.32054531 -20 25 C-27.61389749 37.47992221 -30.21748529 49.91257354 -27.31640625 64.41796875 C-24.5044729 72.69041998 -19.89463858 79.67761183 -12.234375 84.1015625 C-8.21368402 85.71827391 -4.30661051 85.8205579 0 86 C0 91.94 0 97.88 0 104 C-11.06287087 104.34215065 -17.69747343 103.65548973 -25.953125 96.0078125 C-38.35634773 83.84129249 -43.83057129 70.76046821 -44.35400391 53.26074219 C-44.49878305 37.24076131 -40.82308241 22.99690158 -29.62915039 11.02270508 C-19.84471706 1.12238941 -14.02195172 -0.53930584 0 0 Z " fill="#8252A5" transform="translate(89,102)"/>
<path d="M0 0 C10.25390625 19.04296875 10.25390625 19.04296875 12.10595703 22.50927734 C13.39802628 24.89056198 14.70758151 27.24381351 16.06201172 29.58837891 C16.71057129 30.73097168 17.35913086 31.87356445 18.02734375 33.05078125 C18.91860962 34.58665894 18.91860962 34.58665894 19.82788086 36.15356445 C21.16157941 39.3923879 21.1439112 40.73370954 20 44 C17.91133476 47.03193342 16.34661177 48.69467686 12.69140625 49.5234375 C8.01455791 49.82241411 5.27242677 49.48375916 1.515625 46.58203125 C-2.70529965 42.71961646 -4.92274182 38.09657173 -7.375 33 C-8.3237985 31.12410753 -9.27695139 29.25041131 -10.234375 27.37890625 C-10.70037109 26.46512207 -11.16636719 25.55133789 -11.64648438 24.60986328 C-17.90091072 11.86613082 -17.90091072 11.86613082 -29.34765625 4.3828125 C-29.89292969 4.25648437 -30.43820313 4.13015625 -31 4 C-31 3.67 -31 3.34 -31 3 C-29.96101562 2.95101562 -28.92203125 2.90203125 -27.8515625 2.8515625 C-20.81055427 2.48560925 -13.99086044 2.07592874 -7.11328125 0.40234375 C-4.70541275 -0.05608593 -2.44626132 -0.02597844 0 0 Z " fill="#F9F1ED" transform="translate(190,123)"/>
<path d="M0 0 C5.58804841 -0.11503302 11.17196309 -0.21449142 16.76025391 -0.2746582 C18.65948431 -0.29974604 20.5586187 -0.33382468 22.45751953 -0.37719727 C25.19327521 -0.4381033 27.9277507 -0.46626653 30.6640625 -0.48828125 C31.50804596 -0.51408768 32.35202942 -0.5398941 33.22158813 -0.56648254 C37.45318183 -0.56847921 40.18011723 -0.30224189 43.55395508 2.38574219 C46 5 46 5 46.47265625 7.31640625 C46.33730469 8.05761719 46.20195312 8.79882812 46.0625 9.5625 C45.95035156 10.30628906 45.83820313 11.05007812 45.72265625 11.81640625 C44.78797903 14.64064715 44.22311622 15.94999312 42 18 C38.84386894 18.58106833 35.71880048 18.46375197 32.51953125 18.390625 C31.59154221 18.38496521 30.66355316 18.37930542 29.70744324 18.37347412 C26.74193854 18.35107376 23.7776398 18.30087073 20.8125 18.25 C18.80275182 18.22993973 16.79298471 18.21168813 14.78320312 18.1953125 C9.85500371 18.15119696 4.92770635 18.08214424 0 18 C0 12.06 0 6.12 0 0 Z " fill="#8252A5" transform="translate(97,188)"/>
<path d="M0 0 C2.97 0 5.94 0 9 0 C8.34 1.32 7.68 2.64 7 4 C4.69 3.01 2.38 2.02 0 1 C0 0.67 0 0.34 0 0 Z " fill="#E4DFDC" transform="translate(159,126)"/>
</svg>
