<?xml version="1.0" standalone="no"?>
<!DOCTYPE svg PUBLIC "-//W3C//DTD SVG 20010904//EN"
 "http://www.w3.org/TR/2001/REC-SVG-20010904/DTD/svg10.dtd">
<svg version="1.0" xmlns="http://www.w3.org/2000/svg"
 width="1280.000000pt" height="1280.000000pt" viewBox="0 0 1280.000000 1280.000000"
 preserveAspectRatio="xMidYMid meet">

<g transform="translate(0.000000,1280.000000) scale(0.100000,-0.100000)"
fill="#000000" stroke="none">
<path d="M0 6400 l0 -6400 6400 0 6400 0 0 6400 0 6400 -6400 0 -6400 0 0
-6400z m8665 3900 c715 -66 1251 -378 1635 -950 92 -137 140 -228 176 -335 56
-168 67 -258 61 -510 -4 -205 -7 -228 -35 -337 -124 -477 -477 -846 -1072
-1119 -260 -119 -391 -162 -615 -200 -187 -32 -834 -42 -2310 -35 l-1261 6
-96 24 c-238 60 -359 178 -375 364 -9 115 49 257 147 358 65 66 150 109 249
125 51 7 586 13 1760 18 l1686 8 97 26 c288 77 487 233 640 502 72 126 83 169
82 320 -1 188 -38 308 -138 442 -103 139 -320 278 -559 358 -40 13 -90 29
-112 36 -33 11 -536 15 -2725 19 l-2685 5 -75 23 c-163 51 -271 129 -318 232
-34 73 -41 184 -17 266 18 64 71 163 109 206 68 76 175 131 286 147 84 13
5332 13 5465 1z m803 -3642 c16 -21 534 -974 695 -1278 30 -58 90 -170 132
-250 158 -299 239 -473 240 -515 0 -54 -73 -199 -134 -267 -60 -68 -145 -121
-225 -143 -99 -27 -283 -17 -396 21 -213 72 -362 230 -475 507 -43 107 -129
267 -370 692 -250 440 -458 770 -523 828 -62 56 -390 197 -458 197 -17 0 -24
5 -24 20 0 19 7 20 163 20 339 0 691 42 1157 139 224 46 205 44 218 29z"/>
</g>
</svg>
